<?xml version="1.0" encoding="UTF-8" standalone="no"?>
<svg width="206px" height="205px" viewBox="0 0 206 205" version="1.1" xmlns="http://www.w3.org/2000/svg" xmlns:xlink="http://www.w3.org/1999/xlink">
    <!-- Generator: Sketch 46.2 (44496) - http://www.bohemiancoding.com/sketch -->
    <title>Play-Button</title>
    <desc>Created with Sketch.</desc>
    <defs></defs>
    <g id="Navegação" stroke="none" stroke-width="1" fill="none" fill-rule="evenodd">
        <g id="Luz-e-Som" transform="translate(-676.000000, -421.000000)" fill="#FFFFFF">
            <g id="1.-Header">
                <g id="Play-Button" transform="translate(676.000000, 421.000000)">
                    <path d="M144.033924,99.0431373 L87.5696477,60.5375415 C85.8147878,59.2457221 81.1332458,59.2457221 80.7576149,64.1207778 L80.7576149,141.131969 C81.1739958,146.007025 85.9391274,146.090368 87.5696477,144.715206 L144.033924,106.20961 C145.496743,105.334506 147.502894,101.75127 144.033924,99.0431373 L144.033924,99.0431373 Z M89.4922094,132.921623 L89.4922094,72.3311239 L133.835989,102.626374 L89.4922094,132.921623 Z" id="Fill-1"></path>
                    <path d="M102.991935,0.530965224 C46.5281816,0.530965224 0.594632056,46.3290902 0.594632056,102.626374 C0.594632056,158.923657 46.5281816,204.721782 102.991935,204.721782 C159.455689,204.721782 205.389239,158.923657 205.389239,102.626374 C205.389239,46.3290902 159.455689,0.530965224 102.991935,0.530965224 L102.991935,0.530965224 Z M102.991935,196.01294 C51.3340632,196.01294 9.32922653,154.131944 9.32922653,102.626374 C9.32922653,51.1208028 51.3340632,9.23980774 102.991935,9.23980774 C154.649808,9.23980774 196.654644,51.1208028 196.654644,102.626374 C196.654644,154.131944 154.649808,196.01294 102.991935,196.01294 L102.991935,196.01294 Z" id="Fill-3"></path>
                </g>
            </g>
        </g>
    </g>
</svg>